<?xml version="1.0" encoding="UTF-8"?><svg id="Capa_1" xmlns="http://www.w3.org/2000/svg" viewBox="0 0 260.12 260.12"><circle cx="130.06" cy="130.06" r="130.06" fill="#141414"/><g><path d="m46.57,96.44l9.5,19.43c1.23,2.5,1.84,4.78,1.84,6.85,0,2.88-1.14,5.11-3.43,6.68-2.29,1.57-5.19,2.35-8.72,2.35h-6.25v-4.48h6.38c4.75,0,7.13-1.52,7.13-4.56,0-1.86-.7-4.14-2.11-6.85l-9.3-19.43c-.71-1.48-1.14-3.38-1.29-5.7.08-2.76.83-5.08,2.27-6.96,1.44-1.88,3.55-2.82,6.35-2.82h5.98v4.49l-4.43-.15c-1.57,0-2.9.46-3.99,1.38-1.09.92-1.7,2.16-1.85,3.73.04.85.2,1.7.48,2.56s.58,1.66.92,2.41c.34.75.51,1.11.51,1.06Z" fill="#fff"/><path d="m66.78,93.04h8.77l1.69,4.48h-10.46v29.76h8.9v4.48h-13.25v-34.24h-2.3l-1.43-4.48h3.73v-12.22h13.25v4.34h-8.9v7.87Z" fill="#fff"/><path d="m84.95,127.28h10.53v4.48h-15v-50.93h4.48v46.45Z" fill="#fff"/></g><g><path d="m118.46,105.97l5.89-13.21,7.54,39.03h-3.58l-5.26-27.73-4.58,8.42-4.89-8.42-4.49,27.73h-3.53l6.41-39.03,6.51,13.21Z" fill="#fff"/><path d="m138.22,102.12h6.72l1.3,3.43h-8.02v22.81h6.82v3.43h-10.15v-26.23h-1.77l-1.09-3.43h2.86v-9.36h10.15v3.33h-6.82v6.03Z" fill="#fff"/><path d="m148.84,92.75h5.36c1.82,0,3.62.24,5.41.72,1.78.48,3.48,1.32,5.09,2.5,1.61,1.19,3,2.86,4.18,5.01,1.18,2.16,1.96,4.82,2.34,8,.14,1.18.22,2.38.22,3.6,0,3.13-.51,5.9-1.52,8.33-1.02,2.43-2.37,4.45-4.07,6.06-1.7,1.61-3.56,2.81-5.6,3.61-2.03.8-4.04,1.19-6.03,1.19h-5.36v-39.03Zm3.43,35.6c2.36-.03,4.48-.46,6.38-1.27,1.9-.81,3.53-1.95,4.88-3.4,1.36-1.45,2.39-3.15,3.11-5.1.72-1.94,1.08-4.05,1.08-6.32,0-.85-.07-1.96-.22-3.33-1.38-8.54-6.1-12.81-14.15-12.81-.13,0-.32,0-.58.02-.26.02-.47.03-.61.03l.1,32.17Z" fill="#fff"/><path d="m178.71,131.78h-3.33v-39.03h3.33v39.03Z" fill="#fff"/><path d="m202.79,92.44v3.48c-3.44,0-6.39.76-8.87,2.28-2.47,1.52-4.33,3.51-5.58,5.98-1.25,2.47-1.9,5.13-1.94,7.99.04,2.82.69,5.46,1.94,7.93,1.25,2.47,3.11,4.46,5.58,5.98,2.47,1.52,5.43,2.28,8.87,2.28v3.43c-3.19,0-6.03-.54-8.52-1.62-2.49-1.08-4.57-2.55-6.25-4.41-1.68-1.86-2.94-3.97-3.78-6.31-.84-2.35-1.26-4.77-1.26-7.27s.42-4.98,1.26-7.34c.84-2.36,2.09-4.47,3.75-6.33,1.66-1.86,3.74-3.33,6.26-4.42,2.51-1.09,5.36-1.63,8.54-1.63Z" fill="#fff"/><path d="m210.19,131.78h-3.43v-26.23h-1.77l-1.09-3.43h2.86v-4.79c0-1.25.32-2.29.97-3.11.64-.82,1.46-1.41,2.44-1.77.99-.36,2.02-.53,3.09-.53,1.77,0,3.29.43,4.58,1.28,1.28.85,1.92,2.23,1.92,4.14v34.45h-3.48v-26.23h-6.09v26.23Zm0-34.45v4.79h6.09v-4.79c0-.58-.3-1.03-.89-1.35-.59-.31-1.3-.47-2.13-.47s-1.58.16-2.17.47c-.59.31-.89.76-.89,1.35Z" fill="#fff"/></g><g><path d="m78.94,178.39h.44c2.76-.06,10.42-.16,13.39-.16.44,0,.77.16.77.44,0,.99-3.91,1.1-15.87,1.98-4.79,7.61-12.29,17.47-15.32,17.47-1.65,0-4.3-2.81-4.3-3.86,0-.28.16-.44.39-.44.33,0,1.6.88,2.59.88,1.98,0,8.43-5.51,13.34-12.73l.83-1.16c-1.71.06-3.42.17-5.07.17-2.2,0-5.4-.06-5.4-4.3,0-.33.11-.44.22-.44.22,0,1.49,1.99,11.85,1.99,3.03-4.74,7-10.58,9.59-15.27-1.27-2.53-5.29-3.69-5.79-3.69-.33,0-.39-.22-.39-.33,0-.44.55-.66,1.6-.66,1.49,0,5.57.44,6.95,1.27,3.14,1.87,9.81,21.44,15.71,28.16.28,0,.94,0,.94.38,0,.72-2.54,2.04-3.91,2.04s-.83-.04-4.9-8.43c-3.63-7.48-6.39-12.29-9.43-17.64l-8.21,14.33Z" fill="#fff"/><path d="m115,178.5c-2.15,10.69-6.34,19.79-8.38,19.79s-3.64-3.25-3.64-3.64c0-.16.11-.38.33-.38s.99.28,1.27.28c1.98,0,7.16-9.7,10.69-24.64l1.32-5.57-1.6-2.81c-.88-1.54-3.31-1.98-3.31-2.87,0-.5.22-.83.66-.83.72,0,6.5.99,7.16,2.48l10.42,23.92c.72,1.65.94,2.09,1.38,2.09.39,0,.83-.77,1.49-2.09l12.68-24.86c.44-.83.55-1.1.88-1.1h.28c.28,0,2.81.44,2.87.94,2.48,21.33,2.92,26.95,4.74,30.64.5.88,1.38.11,1.38.94,0,.5-3.58,1.87-4.41,1.87-1.38,0-1.38-2.42-1.76-4.47l-3.36-22.98c-.17-1.21-.22-1.54-.5-1.54-.22,0-.77.94-1.54,2.43l-12.79,24.97c-.22.5-.61.83-1.1.83-.61,0-.94-.33-1.21-.94l-11.35-24.75h-.11l-2.48,12.29Z" fill="#fff"/><path d="m179.24,189.91c13.45,0,21.72-5.9,22.65-5.9.44,0,.77.39.77.83,0,1.27-15.6,7.83-27.06,7.83-4.3,0-14.17-.44-14.17-8.82s14.61-25.58,28.05-25.58c2.76,0,8.21.55,8.21,3.86,0,.44-.06,1.49-.55,1.49-.22,0-.33-.11-.83-.61-1.38-1.38-3.91-1.98-8.27-1.98-15.98,0-21.55,16.76-21.55,20.94,0,7.39,6.83,7.94,12.73,7.94Z" fill="#fff"/></g><rect x="39.24" y="143.79" width="180.52" height="1.65" fill="#17adca"/></svg>